HIERARCHY
ROOT hip
{
	OFFSET 0.000000 0.000000 0.000000 
	CHANNELS 6 Xposition Yposition Zposition Xrotation Zrotation Yrotation
	JOINT abdomen
	{
		OFFSET 0.000000 3.402643 0.000000 
		CHANNELS 3 Xrotation Zrotation Yrotation
		JOINT chest
		{
			OFFSET 0.000000 8.438565 -0.680529 
			CHANNELS 3 Xrotation Zrotation Yrotation
			JOINT neck
			{
				OFFSET 0.000000 10.207942 -0.272212 
				CHANNELS 3 Xrotation Zrotation Yrotation
				JOINT head
				{
					OFFSET 0.000000 3.130431 0.000000 
					CHANNELS 3 Xrotation Zrotation Yrotation
					End Site
					{
						OFFSET 0.000000 3.130435 0.000000 
					}
				}
			}
			JOINT lCollar
			{
				OFFSET 3.470700 6.669187 -0.816635 
				CHANNELS 3 Yrotation Zrotation Xrotation
				JOINT lShldr
				{
					OFFSET 3.198488 0.000000 0.000000 
					CHANNELS 3 Zrotation Yrotation Xrotation
					JOINT lForeArm
					{
						OFFSET 10.139888 0.000000 0.000000 
						CHANNELS 3 Yrotation Zrotation Xrotation
						JOINT lHand
						{
							OFFSET 8.370511 0.000000 0.000000 
							CHANNELS 3 Zrotation Yrotation Xrotation
							End Site
							{
								OFFSET 4.083176 0.000000 0.000000 
							}
						}
					}
				}
			}
			JOINT rCollar
			{
				OFFSET -3.470700 6.669187 -0.816635 
				CHANNELS 3 Yrotation Zrotation Xrotation
				JOINT rShldr
				{
					OFFSET -3.198488 0.000000 0.000000 
					CHANNELS 3 Zrotation Yrotation Xrotation
					JOINT rForeArm
					{
						OFFSET -10.139888 0.000000 0.000000 
						CHANNELS 3 Yrotation Zrotation Xrotation
						JOINT rHand
						{
							OFFSET -8.370511 0.000000 0.000000 
							CHANNELS 3 Zrotation Yrotation Xrotation
							End Site
							{
								OFFSET -4.083176 0.000000 0.000000 
							}
						}
					}
				}
			}
		}
	}
	JOINT lThigh
	{
		OFFSET 5.308129 -1.633274 1.361059 
		CHANNELS 3 Xrotation Zrotation Yrotation
		JOINT lShin
		{
			OFFSET -2.041588 -20.007561 0.000000 
			CHANNELS 3 Xrotation Zrotation Yrotation
			JOINT lFoot
			{
				OFFSET 0.000000 -19.190928 -1.224953 
				CHANNELS 3 Xrotation Yrotation Zrotation
				End Site
				{
					OFFSET 0.000000 -2.449906 4.627600 
				}
			}
		}
	}
	JOINT rThigh
	{
		OFFSET -5.308129 -1.633274 1.361059 
		CHANNELS 3 Xrotation Zrotation Yrotation
		JOINT rShin
		{
			OFFSET 2.041588 -20.007561 0.000000 
			CHANNELS 3 Xrotation Zrotation Yrotation
			JOINT rFoot
			{
				OFFSET 0.000000 -19.190928 -1.224953 
				CHANNELS 3 Xrotation Yrotation Zrotation
				End Site
				{
					OFFSET 0.000000 -2.449906 4.627600 
				}
			}
		}
	}
}
MOTION
Frames: 10
Frame Time: 0.033333
-6.957740 51.358616 66.334724 8.896485 9.365235 -14.363644 24.948641 -1.215008 -16.294350 -29.248049 9.550781 0.498047 51.553619 8.070152 2.616707 -55.927738 -4.765625 -46.425781 2.000000 -2.000000 0.000000 -10.156250 -55.078121 -22.488474 -102.120750 0.493971 -2.822135 6.849680 43.659073 -43.096375 -2.000000 2.000000 0.000000 46.347656 -4.462891 9.726563 121.739883 -1.865228 -2.960022 48.506798 8.218590 -62.779713 -12.112091 -4.852263 10.815656 20.994183 -5.999147 -2.386168 -11.887527 3.565222 5.000512 -22.080372 -35.213570 -34.253105 40.546909 4.172014 3.635063 17.516384 -10.053346 10.016340 
-6.907063 51.635399 66.819511 7.636719 8.535156 -14.314958 24.782673 -1.130839 -16.470200 -29.248049 9.550781 0.498047 51.553619 8.070152 2.616707 -54.794926 -4.160156 -47.109379 2.000000 -2.000000 0.000000 -6.259766 -57.646488 -22.176218 -101.949577 0.514463 -2.637625 1.603934 45.397972 -48.756027 -2.000000 2.000000 0.000000 46.162109 -4.521484 10.301965 121.380669 -1.890795 -2.688031 48.274670 8.082331 -63.063183 -8.880880 -4.744647 10.330054 17.972458 -6.075642 -2.098897 -10.665300 3.639872 4.997874 -18.750942 -34.205509 -35.851658 38.270622 4.318225 3.319202 18.647402 -9.614241 9.977635 
-6.857126 51.880539 67.197540 6.376953 7.666016 -14.246745 24.774607 -1.034921 -16.621178 -29.248049 9.550781 0.498047 51.553619 8.070152 2.616707 -53.867191 -3.525390 -47.734379 2.000000 -2.000000 0.000000 -2.207031 -60.302734 -22.353516 -101.590263 0.169281 -2.685988 -3.215167 46.452141 -54.373974 -2.000000 2.000000 0.000000 45.507816 -4.062500 10.809855 120.834404 -1.704996 -2.687035 47.980156 8.085668 -62.693638 -6.203925 -4.548149 9.803041 16.033350 -6.144779 -2.034701 -9.222392 3.891471 5.421254 -15.636351 -33.403934 -36.943439 36.341717 4.445603 3.149807 19.549095 -9.076509 10.026704 
-6.814477 52.101967 67.452751 5.292969 6.816407 -14.119936 24.598827 -1.034921 -16.621178 -29.248049 9.550781 0.498047 51.553619 8.070152 2.616707 -52.753910 -2.929687 -48.164066 2.000000 -2.000000 0.000000 1.855469 -62.802734 -22.861330 -101.248405 0.354516 -2.696766 -8.228146 47.260403 -59.282272 -2.000000 2.000000 0.000000 44.472656 -3.662110 10.898438 120.674706 -1.818175 -2.927967 47.875507 7.943681 -62.132393 -4.085630 -4.293429 9.509802 14.620087 -6.190644 -1.695420 -7.468484 3.498988 5.095015 -13.215808 -32.786022 -37.977684 34.753780 4.069859 3.004025 20.628244 -8.385534 10.162926 
-6.772666 52.283852 67.791168 4.228516 6.113281 -14.129820 24.611204 -0.951519 -16.766527 -29.248049 9.550781 0.498047 51.553619 8.070152 2.616707 -51.835938 -2.470703 -48.398438 2.000000 -2.000000 0.000000 5.976562 -64.980469 -23.310547 -101.063728 0.167584 -2.715225 -12.438146 47.351479 -63.739422 -2.000000 2.000000 0.000000 43.984375 -3.242188 11.161454 120.470016 -1.409271 -2.894545 47.584824 7.594857 -62.184772 -1.814737 -4.011033 9.044964 12.688653 -6.210268 -1.517729 -6.046824 3.394952 4.937960 -11.125358 -32.260880 -38.655563 33.472641 4.142919 3.049021 23.048668 -7.452919 10.211602 
-6.717604 52.442020 68.153641 3.164063 5.263672 -13.944415 24.436911 -0.864875 -16.920883 -29.248049 9.550781 0.498047 51.553619 8.070152 2.616707 -50.927738 -2.021484 -48.593750 2.000000 -2.000000 0.000000 8.662110 -66.894531 -23.016794 -101.060211 0.165190 -2.587967 -16.059700 47.157398 -65.854462 -2.000000 2.000000 0.000000 43.203125 -2.480469 11.435123 120.115463 -1.415484 -2.787585 47.471600 7.697605 -61.484921 0.645438 -3.818732 9.093724 10.555527 -5.851072 -1.419508 -4.765153 2.787789 4.660610 -9.180190 -32.020603 -39.451843 32.079666 4.220386 3.123578 25.304079 -6.918867 10.258596 
-6.667751 52.544819 68.488045 2.275391 4.541016 -13.876179 24.439501 -0.610204 -16.994278 -29.248049 9.550781 0.498047 51.553619 8.070152 2.616707 -50.195313 -1.718750 -48.789063 2.000000 -2.000000 0.000000 8.447267 -68.681633 -20.038395 -101.235725 0.156007 -2.577654 -17.419918 46.186947 -64.731270 -2.000000 2.000000 0.000000 42.841797 -2.011719 12.314112 119.603897 -1.734243 -2.688731 47.337643 7.556877 -61.188477 2.606619 -3.563194 8.294152 8.994666 -6.293725 -1.268638 -4.122338 3.403373 4.386209 -7.295547 -31.552059 -39.849747 31.177641 4.269989 3.045248 27.500376 -6.211698 10.707765 
-6.612421 52.631802 68.782127 1.406250 4.033203 -13.778609 24.450550 -0.514434 -17.145475 -29.248049 9.550781 0.498047 51.553619 8.070152 2.616707 -49.296875 -1.455078 -48.808842 2.000000 -2.000000 0.000000 8.291017 -69.824219 -17.440805 -101.414978 0.324137 -2.714555 -18.939695 45.260784 -63.074490 -2.000000 2.000000 0.000000 42.822266 -1.552734 12.851563 119.429161 -1.751479 -2.728844 46.799789 7.384939 -61.112926 4.462229 -3.485622 8.198735 7.762114 -6.308029 -1.085635 -3.306110 3.375289 4.401175 -5.922622 -31.164675 -40.072994 30.476669 4.142046 2.587749 29.358522 -5.551354 10.876798 
-6.550532 52.702976 69.034676 0.527344 3.310542 -13.847114 24.450705 -0.424627 -17.309156 -29.248049 9.550781 0.498047 51.553619 8.070152 2.616707 -48.554688 -1.142578 -48.818359 2.000000 -2.000000 0.000000 7.451172 -70.751953 -14.999454 -101.765999 0.325268 -2.695064 -20.715807 44.704281 -62.831806 -2.000000 2.000000 0.000000 43.027344 -1.220703 13.730470 119.078949 -1.748653 -2.777571 46.414440 6.883626 -61.277485 6.029194 -3.218333 8.155892 6.902366 -6.317161 -1.035247 -2.995122 3.244857 4.270634 -4.308105 -31.219662 -40.361355 29.784355 4.347307 2.739019 30.824419 -5.132392 10.904461 
-6.494848 52.726696 69.261948 -0.205078 2.978517 -13.729955 24.453783 -0.344686 -17.445507 -29.248049 9.550781 0.498047 51.553619 8.070152 2.616707 -47.646484 -0.878906 -48.642578 2.000000 -2.000000 0.000000 7.373046 -71.162109 -12.998047 -102.121086 0.327669 -2.822266 -23.738546 44.641937 -64.512489 -2.000000 2.000000 0.000000 43.339844 -0.712891 14.238159 118.724113 -1.774937 -2.661757 46.043461 6.704172 -61.429867 7.211580 -3.063326 7.758109 6.550211 -6.307101 -0.992381 -2.704465 3.149606 4.377321 -3.252353 -30.976534 -40.855064 29.260868 4.377063 2.879406 31.699297 -4.982908 10.915407 
